<?xml version="1.0" encoding="utf-8"?>
<svg version="1.1" id="Layer_1" x="0px" y="0px" style="enable-background:new 0 0 792 612;" viewBox="118.02 208.53 555.83 148.81" height="148.8px" width="555.8px" xmlns="http://www.w3.org/2000/svg">
  <style type="text/css">
	.st0{fill:#FED401;}
	.st1{fill:#FFFFFF;}
	.st2{fill:#192F5B;}
	.st3{fill:#1A2E5A;}
	.st4{fill:#FCD10A;}
	.st5{fill:#0B233F;}
	.st6{fill:#0B233F;stroke:#0B233F;stroke-miterlimit:10;}
</style>
  <polygon class="st0" points="238.88,285.71 128.08,285.71 124.22,248.55 124.45,220.39 242.48,220.17 242.93,246.07 "/>
  <path class="st0" d="M182.09,285.59l-52.88-0.34c0,0,5.91,25,18.24,40.38c11.46,14.29,34.97,28.38,34.97,28.38L182.09,285.59z"/>
  <path class="st1" d="M184.83,285.76l52.88-0.34c0,0-5.91,25-18.25,40.38c-11.46,14.29-34.97,28.38-34.97,28.38L184.83,285.76z"/>
  <path class="st2" d="M162.28,223.22h13.34c-0.37-2-3.63-3.63-4.02-3.89h-11.88L162.28,223.22z"/>
  <path class="st2" d="M132.44,283.17h-2.34c-2.63-13.61-3.33-28.67-3.33-45.84c0-7.24,0.03-12.04,0.06-14.55c0,0-1.98-2.11-3.84-3.42  c0,0-0.11,8.32-0.11,17.98c0,26.78,1.64,48.58,9.67,67.94c8.8,21.23,24.65,37.61,49.87,51.54l0.94,0.52l0.94-0.52  c25.3-13.98,41.18-30.36,49.96-51.54c8.02-19.36,9.67-41.16,9.67-67.94c0-9.88-0.05-14.32-0.08-16.1l-0.03-1.91h-26.9  c1.24,0.54,6.51,2.96,7.86,3.79c0.05,0.03,0.07,0.07,0.09,0.11h15.12c0.03,2.46,0.05,6.78,0.05,14.12c0,17.17-0.69,32.22-3.32,45.84  h-67.66 M181.53,291.98v8.44l-29.02,28.94c-1.31-1.42-2.56-2.88-3.75-4.35L181.53,291.98z M145.13,320.05  c-1.13-1.63-2.45-3.51-3.46-5.21l28.21-27.82h8.28L145.13,320.05z M181.53,308.92v8.18l-20.46,20.49c-1.49-1.28-2.93-2.58-4.31-3.9  L181.53,308.92z M181.53,325.59v8.18l-11.05,11.09c-1.63-1.14-3.21-2.3-4.74-3.47L181.53,325.59z M181.53,341.35v10.51  c-2.18-1.25-4.28-2.53-6.3-3.82L181.53,341.35z M131.96,292.26l5.24-5.24l8.09,0.04l-11.21,11.21  C133.5,296.58,132.45,294,131.96,292.26 M136.18,303.84l16.81-16.81l8.51,0.04l-22.62,22.6c-0.95-1.89-1.92-3.9-2.74-5.87  C136.12,303.74,136.2,303.89,136.18,303.84 M230.66,303.79c-8.08,19.48-22.49,34.78-45.24,47.93v-64.65h50.47  C234.57,292.88,232.87,298.45,230.66,303.79"/>
  <path class="st1" d="M146.87,210.38c1.14,1.25,6.54,3.06,9.14,4.2c2.6,1.14,3.79,3.17,4,5.5c-1.3-0.52-3.37,0.11-5.4,1.48  c-2.02,1.37-5.38,2.02-5.65,2.09c1.13,2.92,4.51,7.85,6.82,6.76c-0.24,1.5,0.73,4.05,2.63,6.1c-4.58,2.93-10.25,11.64-12.71,20.08  c-3.81-1.68-7.15-7.51-8.52-12.33c-0.49,0.42-1.02,1.4-1.02,1.4s-1.8-7,0.51-15.12l-1.78,0.25c0.87-3.91,3.98-8.53,5.85-10.35  l-1.25-0.41c1.87-3.17,7.06-5.5,7.06-5.5S145.78,212.35,146.87,210.38"/>
  <path class="st0" d="M154.72,229.28c-1.69-0.97-2.61-2.18-3.31-3.28c0.98,0.48,2.08,0.86,3.16,1.22c0.72,0.24,1.42,0.48,2.08,0.75  C156.1,228.52,155.4,229.04,154.72,229.28"/>
  <path class="st0" d="M160.34,229.72c-1.02-1.7-3.3-2.48-5.52-3.23c-2.02-0.68-4.09-1.39-5.13-2.75c0.11-0.04,0.24-0.07,0.41-0.09  c1.09-0.13,1.83-0.33,2.76-0.67c0.85-0.31,2.48-1.43,3.24-1.91c0.76-0.48,2.48-1.05,3.08-0.51  C162.91,223.8,162.26,227.99,160.34,229.72"/>
  <path class="st0" d="M150.67,221.46c-0.92-0.29-1.11-1.42-1.24-2.53c0.65,0.26,1.59,0.83,2.06,1.26c0.22,0.19,0.78,0.57,1.34,0.9  C152.37,221.36,151.6,221.76,150.67,221.46"/>
  <path class="st0" d="M134.82,236.47c-0.26-0.85-0.54-1.69-0.84-2.53c-0.77-2.1-1.6-4.19-2.62-6.19c-1-2.01-2.1-3.96-3.33-5.84  c-1.24-1.87-2.66-3.63-4.38-5.08c1.18,1.89,2.35,3.72,3.48,5.59c-1.23-1.27-2.51-2.43-3.68-3.48c-2.56-2.3-4.76-4.28-4.22-5.65  c0.07-0.17,0.42-0.52,1.3-0.72c3.32-0.75,9.88,1.28,18.37,9.15c-0.31,0.36-0.62,0.73-0.93,1.13c-1-0.96-2.02-1.89-3.09-2.77  c-1.73-1.41-3.6-2.68-5.62-3.63c0.16,0.12,0.32,0.25,0.49,0.38c1.62,1.3,5.26,4.55,7.56,6.9c-0.19,0.26-0.37,0.53-0.55,0.8  c-0.16-0.16-0.33-0.33-0.5-0.48c-1.66-1.49-3.46-2.85-5.43-3.9c2.02,2.04,4.39,4.37,5.38,5.24c-0.17,0.29-0.34,0.58-0.5,0.87  c-1.05-0.89-2.16-1.71-3.35-2.4c0.88,1.29,2.23,2.74,2.87,3.38c-0.7,1.51-1.18,3.14-1.23,4.82l1.65-0.82  C135.27,232.55,134.97,234.37,134.82,236.47"/>
  <path class="st0" d="M134.45,283.04L134.45,283.04c-0.67,0.03-1.33,0.09-2,0.19c0.16-0.64,0.52-1.39,1-1.89  c0.3-0.32,0.66-0.55,1.05-0.66c0.16-0.05,0.33-0.07,0.51-0.08c0.19,0.11,0.36,0.24,0.48,0.36  C134.99,281.56,134.62,282.29,134.45,283.04"/>
  <path class="st0" d="M137.37,283.04c-0.06,0-0.13,0-0.19,0c-0.67,0.03-1.33,0.09-2,0.19c0.16-0.64,0.52-1.39,1-1.89  c0.3-0.32,0.66-0.55,1.05-0.66c0.16-0.05,0.34-0.07,0.51-0.08c0.16,0.14,0.37,0.34,0.52,0.53  C137.84,281.7,137.53,282.36,137.37,283.04"/>
  <path class="st0" d="M141.55,283.07c-0.06-0.01-0.11-0.02-0.16-0.02c-0.44-0.03-0.86-0.02-1.29-0.01c-0.67,0.03-1.33,0.09-2,0.19  c0.15-0.67,0.51-1.38,1-1.89c0.3-0.32,0.66-0.55,1.05-0.66c0.2-0.06,0.42-0.08,0.65-0.08C141.32,281.02,141.76,282.22,141.55,283.07  "/>
  <path class="st0" d="M146.01,283.48L146.01,283.48c-0.67,0.03-1.33,0.09-2,0.19c0.16-0.64,0.52-1.39,1-1.89  c0.3-0.32,0.66-0.55,1.05-0.66c0.37-0.12,0.82-0.09,1.26-0.04c0.01,0,0.01,0,0.02,0c-0.03,0.03-0.06,0.05-0.08,0.08  C146.64,281.8,146.21,282.63,146.01,283.48"/>
  <path class="st0" d="M148.93,283.48c-0.06,0-0.12,0-0.18,0c-0.67,0.03-1.33,0.09-2,0.19c0.16-0.64,0.51-1.39,1-1.89  c0.3-0.32,0.66-0.55,1.05-0.66c0.37-0.12,0.82-0.09,1.26-0.04c0.06,0.01,0.12,0.03,0.17,0.04c-0.2,0.2-0.4,0.43-0.59,0.72  C149.25,282.42,149.04,283,148.93,283.48"/>
  <path class="st0" d="M163.28,279.57c-0.18,0.59-0.14,1.04,0.12,1.39c0.43,0.57,1.22,0.54,2.06,0.52c0.5-0.02,1.01-0.03,1.37,0.08  c1,0.32,1.41,1.45,1.6,2.2c-1.45-0.43-3.45-0.32-5.26,0.25c-1.89,0.6-3.82,0.93-6.93,0.14c-3.11-0.79-3.99-0.78-6.57-0.48  c0.36-1.39,1.01-1.93,1.44-2.25c0.42-0.32,1.37-0.7,3.01-0.03c1.64,0.67,2.72,1.57,4.24,0.23c-0.34,0.12-1.35,0.08-1.98-0.16  c1.14-0.21,2.64-0.69,3.21-2.07c0.43-1.04,1.65-4.46,2-5.47c0.3-0.03,1.08,0.08,1.93,0.45c0.7,0.3,0.93,0.57,0.95,0.57  C164.33,275.64,163.44,279.04,163.28,279.57"/>
  <path class="st0" d="M181.39,282.76c-0.94,0.06-2.21,0.14-2.99,0.37c0.21-1.45,1.41-3.01,2.68-3.01c0.4,0,0.75,0.24,1.04,0.68  C181.75,281.37,181.5,282.06,181.39,282.76"/>
  <path class="st0" d="M184.58,282.8c-0.76,0.04-1.79,0.11-2.46,0.22c0.19-1.42,1.08-2.9,2.16-2.9c0.4,0,0.75,0.24,1.04,0.68  C184.95,281.38,184.69,282.09,184.58,282.8"/>
  <path class="st0" d="M189.05,282.28v0.43c-1.07,0-3.21,0.15-3.73,0.39c0.16-1.44,1.07-2.98,2.17-2.98  C188.62,280.12,189.05,281.96,189.05,282.28"/>
  <path class="st0" d="M205.24,282.65c-0.75,0.07-1.66,0.21-2.26,0.35c0-0.53,0.14-1.38,0.49-1.94c0.36-0.56,0.88-0.94,1.43-0.94  c0.4,0,0.75,0.24,1.04,0.68C205.6,281.34,205.36,281.99,205.24,282.65"/>
  <path class="st0" d="M205.95,283.04c0.18-1.43,1.07-2.92,2.16-2.92c0.4,0,0.75,0.24,1.04,0.68c-0.35,0.55-0.59,1.21-0.71,1.89  C207.69,282.74,206.65,282.89,205.95,283.04"/>
  <path class="st0" d="M209.14,283.14c0.15-1.45,1.06-3.02,2.17-3.02c1.13,0,1.61,1.84,1.57,2.46  C211.74,282.6,209.75,282.89,209.14,283.14"/>
  <path class="st0" d="M224.5,253.01c1.14-0.22,2.24-1.49,3.2-1.72c0.53-0.13,1.35,0.08,1.61,0.19c0.53,0.21,1.01,0.57,1.41,1.02  c0.79,0.9,1.26,2.17,1.29,3.36c0,0.87-0.23,1.76-0.64,2.56c-0.07-1.87-1.08-4.07-2.64-4.73c1.65,2.33,1.57,6.5-2.1,6.98  c0.96-0.45,1.3-1.51,1.33-2.11c0.05-0.61-0.2-1.26-0.58-1.69c-0.76-0.89-1.66-1.32-2.71-1.75c-0.81-0.33-1.76-0.49-2.64-1.41  c-0.54-0.57-0.96-1.91-0.37-3.87c0,0.04-0.16,1.55,0.74,2.54C222.76,252.75,223.51,253.2,224.5,253.01"/>
  <path class="st0" d="M205.49,246.89c1.77,0.8,3.41,1.9,4.9,3.18c1.47,1.29,2.85,2.73,3.92,4.35c0.06,0.09,0.12,0.18,0.17,0.27  c-1.72-1.84-3.74-3.34-5.94-4.55c-1.32-0.71-2.71-1.3-4.19-1.7c-0.52-0.14-1.06-0.25-1.6-0.34c-0.46-0.69-0.9-1.43-1.33-2.21  C202.81,245.95,204.2,246.3,205.49,246.89"/>
  <path class="st0" d="M199.17,244.91c0.23,0.15,0.46,0.29,0.68,0.45c3.24,6.42,7.62,10.29,10.55,11.18  c1.4,5.59,6.35,13.09,7.37,14.62c-0.1,2.07-0.29,6.55-0.19,7.69c-0.95,2-2.57,3.43-2.57,4.48h-1.37v-1.05c0-0.44-0.33-1.8-1.18-2.5  c0.49-0.86,3.09-5.54,2.52-7.73c-1.78-2.03-5.72-8.64-6.48-11.44c-2.54-0.89-6.99-3.94-8.13-6.61c-0.25,1.4,0.89,4.7,1.4,5.21  c-3.56-1.14-8.13-4.7-8.51-13.47c-2.12-1.53-4.13-2.99-6.13-3.87C191.41,241.87,196.27,243.13,199.17,244.91"/>
  <path class="st0" d="M171.16,216.03c5.91,2.86,8.14,5.62,8.01,9.72c-0.1,2.86-1.62,5.15-6.67,8.01s-7.82,6.39-7.63,8.29  c4.45,1.78,8.93,8.9,9.82,13.85c0.63-0.64,1.52-2.41,1.52-3.81c0.51,1.65,2.29,5.72-0.25,10.93c0.76-0.33,1.42-0.75,1.83-1.18  c0.59,6.17-4.73,10.4-6.44,11.59c-2.62,1.82-5.03,2.48-5.84,2.09c0.04-0.15,0.06-0.29,0.08-0.38c0.26-1.39-2.41-2.13-2.72-2.21  c-1.57-0.41-2.12-0.03-2.3,0.39c-0.04-0.15-0.08-0.32-0.09-0.51c-0.04-0.47-0.02-0.98,0.03-1.5l0.37-3.17  c0.14-1.07,0.18-2.16,0.16-3.25c-0.06-1.09-0.23-2.2-0.67-3.18c-0.09,1.08-0.41,2.4-0.69,3.43c-1.99-3.96-5.37-8.51-5.21-11.01  c-0.76,0.76-1.78,3.18-1.91,4.96c-4.83-11.35,3.63-19.59,6.46-21.54c0.46,0.29,1,0.57,1.56,0.85c-0.93,1.57-0.76,2.73-0.59,3.18  c0.81-2.01,3.63-5.79,7.69-7.98c4.06-2.19,6.71-3.53,8.03-5.84c1.31-2.31,0.61-5.62-2.06-7.62c-2.68-2.01-4.42-2.49-6.55-3.89  c-2.19-1.44-2.38-2.47-2.31-3.01c0.09-0.65,0.68-1.31,2.66-1.99c4.93-1.68,16.68-2.45,32.52,2.1c15.9,4.57,26.7,11.31,30.53,14.51  c-5.09-3.33-14.83-8.72-28.93-12.79c-21.45-6.2-32.86-3.04-32.6-0.95C169.06,214.89,170.05,215.49,171.16,216.03"/>
  <path class="st0" d="M186.25,232.01c2.03,0.74,5.77,2.81,7.18,6.04C191.42,237.09,188.09,234.76,186.25,232.01"/>
  <path class="st0" d="M186.13,228.53c6.85,1.54,11.53,5.97,12.77,9.43C194.81,234.51,189.96,230.8,186.13,228.53"/>
  <path class="st0" d="M185.97,225.1c7.39,1.42,15.63,5.67,19.48,12.57C198.24,231.53,192.75,228.23,185.97,225.1"/>
  <path class="st0" d="M185.87,221.57c11.92,1.85,24.68,9.73,28.41,16.29C207.33,232.23,197.67,225.76,185.87,221.57"/>
  <path class="st0" d="M184.7,218.08c12.02,1.46,31.36,8.06,42.13,20.37C214.18,229.18,199.19,222.18,184.7,218.08"/>
  <path class="st0" d="M185.62,214.6c23,2.66,44.18,15.01,52.24,24.02C226.42,230.32,208.29,220.21,185.62,214.6"/>
  <path class="st3" d="M154.78,222.97c0,0,0.69-0.36,1.2-0.69c0.22-0.14,0.5-0.12,0.7,0.04l0.48,0.38  C156.29,223.2,155.24,223.15,154.78,222.97"/>
  <path class="st2" d="M154.79,222.98c0,0,0.69-0.36,1.2-0.69c0.22-0.14,0.5-0.12,0.7,0.04l0.48,0.38  C156.3,223.21,155.24,223.16,154.79,222.98"/>
  <path class="st2" d="M241.42,239.78c0.22-0.94-4.46-4.78-6.98-6.38c0.76-0.04,1.26-0.3,1.45-0.7c0.38-0.8-0.24-1.9-2.71-4.1  c-3.21-2.86-12.42-10.74-33.64-16.85c-18.93-5.45-31.81-2.71-34.57-0.91c-1.75,1.14-2.02,2.61-0.97,4.38  c1.12,1.88,3.74,2.97,5.09,3.67c1.35,0.7,3.61,1.88,4.82,3.3c1.2,1.42,1.71,3.59,0.51,5.35c-1.2,1.75-3.85,3.21-5.98,4.31  c-2.06,1.06-4.99,2.85-7.17,5.65c-1.36-0.67-2.56-1.35-3.34-2.36c-0.88-1.14-1.44-2.13-1.65-3.08c-0.27-1.21,0.04-2.32,0.92-3.27  c1.41,0.52,2.6,2.41,2.82,2.73c1.18-0.83,1.87-1.63,2.34-2.56c0.48-0.94,0.67-1.93,0.69-2.87c0.03-2.16-0.9-4.25-2.66-5.94  c0.1-2.6-1.47-4.33-3.39-5.51c-0.51-0.95-1.11-2.6-1.23-3.56c-0.39,0.17-1.32,1.24-1.67,2.17c-0.72-0.27-1.4-0.49-1.97-0.67  c-0.48-0.15-2.87-0.88-5.7-2.91c-1.25,1.93-0.98,3.5-0.7,4.71c-2.02,0.95-5.36,2.85-7.08,5.58c-10.46-9.3-16.65-8.85-18.35-8.47  c-1.08,0.24-1.85,0.76-2.11,1.42c-0.83,2.11,1.53,4.23,4.52,6.92c1.6,1.44,3.41,3.07,4.98,4.91c1.14,1.33,2.14,2.85,3.06,4.66  c0.73,1.65,1.43,3.32,2.03,5.02c0.73,2.05,1.39,4.13,1.95,6.24c0.05,2.43,0.3,5.02,0.84,7.54l1.27-2.55  c0.31,2.79,1.14,6.78,3.07,10.78c3.24,6.7,8.57,11.3,15.53,13.5c-2.07,0.36-4.7-0.35-7.01-1.28c-0.24,1.92-0.44,4.96,0.24,5.27  c-0.49,1.4-1.36,3.8-1.7,4.63c-0.44,1.08-2.8,1.57-3.78,1.72c-0.55-0.21-1.12-0.38-1.7-0.43c-0.49-0.04-0.98-0.06-1.51,0.08  c-0.12,0.03-0.24,0.08-0.36,0.13c-0.35-0.1-0.7-0.18-1.05-0.21c-0.49-0.04-0.98-0.06-1.51,0.08c-0.09,0.03-0.18,0.06-0.27,0.1  c-0.31-0.08-0.63-0.15-0.95-0.18c-0.49-0.04-0.98-0.06-1.51,0.08c-0.51,0.14-0.99,0.44-1.36,0.84c-0.75,0.8-1.25,1.88-1.35,2.94l0,0  l-0.05,0.49l0.5-0.1c0.73-0.14,1.5-0.2,2.26-0.24l-0.03,0.34l0.5-0.1c0.78-0.15,1.61-0.22,2.42-0.25c0.01,0,0.02,0,0.04,0  l-0.03,0.35l0.5-0.1c0.78-0.15,1.61-0.22,2.42-0.25c0.41-0.02,0.81-0.02,1.2,0.01c0.37,0.03,0.78,0.11,1.18,0.2  c0.22,0.05,0.43,0.1,0.65,0.14l-0.04,0.44l0.5-0.1c0.73-0.14,1.5-0.2,2.26-0.24l-0.03,0.34l0.5-0.1c0.78-0.15,1.61-0.22,2.42-0.25  c0.01,0,0.02,0,0.03,0c-0.01,0.14-0.02,0.27-0.02,0.35c3.07-0.52,3.81-0.53,6.82,0.19c1.39,0.33,3.81,1.1,7.26,0.07  c2.88-0.86,4.69-0.69,5.79-0.21l1.01-0.65c-0.14-0.72-0.58-2.92-2.48-3.53c-0.54-0.17-1.19-0.15-1.75-0.14  c-0.37,0.01-0.99,0.03-1.11-0.05c0,0-0.03-0.09,0.06-0.37c0.1-0.32,0.54-1.97,0.87-3.28c0.26,0.08,0.53,0.14,0.85,0.14  c1.68,0,4.06-1.11,5.92-2.4c0.93-0.64,2.83-2.11,4.42-4.27c4.66-1.56,7.95-4.15,10.58-6.59c-0.18,1.49-1.48,3.11-2.57,4.22  c1.38,2.25,2.9,3.7,3.85,4.51c-0.38,1.43-2.92,3.91-4.07,4.77c-0.78,0.59-3.43,0.76-4.41,2.72c-1.27,0.71-2.38,2.33-2.38,3.82  l14.35-0.22c0.35-0.92,1.56-1.81,2.76-3.02c0.38-1.59,1.59-4.89,2.54-6.8c-0.69-1.03-2.09-3.98-3.49-8.25  c-2.2-0.6-4.94-3.56-5.15-5.96c0.03,0.03,0.06,0.06,0.11,0.1c2.35,3.81,7.94,6.35,14.36,5.65c2.51,4.08,5.51,7.06,6.79,8.24  c-0.49,1.24-1.43,2.69-2.13,3.21c-0.19,0.15-0.57,0.34-0.94,0.53c-0.9,0.46-1.9,0.98-2.5,1.79c-1.91,1.05-2.4,3.31-2.26,4.63  l0.11,1.02h14.18v-1.14c0.02-0.25,0.32-0.65,0.9-1.47c0.58-0.82,1.2-1.69,1.7-2.8c-0.09-1.07-0.03-2.74,0.02-4.26  c0.07-1.84,0.13-3.54,0.17-3.96c-3.59-5.29-6.83-11.51-7.58-15.2c-2.26-0.56-4.72-2.49-7.06-5.42c4.21,1,8.46,4.32,10.12,6.38  c1.62,2.02,3.57,4.63,5.98,6.43c2.63,1.96,5.49,2.76,7.64,2.91c2.21,0.15,4.3-0.34,6.17-1.37c0.94-0.52,1.78-1.19,2.54-1.94  c0.75-0.76,1.37-1.65,1.88-2.58c0.5-0.95,0.84-1.97,1.07-3.01c0.19-1.05,0.24-2.13,0.15-3.19c-0.21-2.12-1.04-4.18-2.37-5.85  c-2.06-2.61-5.2-4.1-8.49-4.14c-1.52-0.02-2.55,0.17-3.62,0.7c-1.76,0.74-3.3,2.04-4.2,3.75c-0.69,1.32-1.07,3.3-0.6,4.79  c0.47,1.48,1.58,2.23,3.4,2.8c0.97,0.3,2.14,0.93,2.72,1.56c0.28,0.32,0.45,0.66,0.46,1.06c0.02,0.73-0.4,1.5-1.24,1.71  c-0.51,0.13-1.55,0.19-2.23-0.54c0.53,1.78,4.32,2.68,6.65,1.39c1.44-0.8,2.95-2.35,3-5.21c0.03-1.32-0.55-3.08-1.57-4.27  c-1.03-1.19-2.69-2.01-4.38-1.67c-0.8,0.16-1.57,0.73-2.06,1.09c-0.81,0.59-1.38,0.84-1.88,0.4c-0.21-0.19-0.59-1.04-0.24-2.29  c0.72-2.59,3.03-4.11,5.46-4.14c2.3-0.02,5.32,0.69,7.87,3.76c1.32,1.59,2.61,4.69,1.91,8.03c-0.7,3.35-2.84,5.56-4.85,6.66  c-1.71,0.92-4.76,1.89-8.23,0.67c-3.23-1.14-5.42-3.86-6.62-5.41c-1.19-1.59-2.22-3.26-3.36-4.98c-1.18-1.73-2.62-3.22-4.18-4.57  c-1.57-1.34-3.31-2.49-5.22-3.33c-1.59-0.71-3.15-1.15-5.23-1.22l-0.24-0.17c-1.98-1.39-4.24-2.43-6.8-3.14  c2.26-0.21,2.72-0.95,2.91-1.51c0.38,0.19,3.72,0.67,4.57,0.29c0.59-0.26,0.26-1.27-0.13-1.56c2,0.57,5.66,0.95,6.13,0.51  c0.48-0.44,0.29-1.02,0-1.53c2.76,1.05,7.97,2.16,8.58,1.43c0.49-0.59,0.1-1.81-0.67-2.76c7.44,4,14.58,4.57,15.54,4  c0.46-0.28,0.1-1.53-0.76-2.1C232.94,239.87,241.04,241.43,241.42,239.78 M134.46,283.05C134.46,283.05,134.45,283.05,134.46,283.05  c-0.67,0.03-1.33,0.09-2,0.19c0.16-0.64,0.51-1.39,1-1.89c0.3-0.32,0.66-0.55,1.05-0.66c0.16-0.05,0.33-0.07,0.51-0.08  c0.19,0.11,0.36,0.24,0.48,0.36C135,281.58,134.63,282.3,134.46,283.05 M137.38,283.05c-0.06,0-0.13,0-0.19,0  c-0.67,0.03-1.33,0.09-2,0.19c0.16-0.64,0.52-1.39,1-1.89c0.3-0.32,0.66-0.55,1.05-0.66c0.16-0.05,0.34-0.07,0.52-0.08  c0.16,0.14,0.36,0.34,0.52,0.54C137.85,281.71,137.54,282.37,137.38,283.05 M141.56,283.08c-0.06-0.01-0.11-0.02-0.16-0.02  c-0.44-0.03-0.86-0.02-1.29-0.01c-0.67,0.03-1.33,0.09-2,0.19c0.15-0.67,0.51-1.39,1-1.89c0.3-0.32,0.66-0.55,1.05-0.66  c0.2-0.06,0.42-0.08,0.65-0.08C141.32,281.03,141.77,282.23,141.56,283.08 M224.5,253.02c1.14-0.22,2.24-1.49,3.2-1.72  c0.53-0.13,1.35,0.08,1.61,0.19c0.53,0.21,1.01,0.57,1.41,1.02c0.79,0.9,1.26,2.17,1.29,3.36c0,0.87-0.23,1.76-0.64,2.56  c-0.07-1.87-1.08-4.07-2.63-4.73c1.65,2.33,1.57,6.5-2.1,6.98c0.96-0.45,1.3-1.51,1.33-2.11c0.05-0.61-0.2-1.26-0.58-1.69  c-0.76-0.89-1.66-1.32-2.71-1.75c-0.81-0.33-1.76-0.49-2.64-1.41c-0.54-0.57-0.96-1.91-0.37-3.87c0,0.04-0.16,1.55,0.74,2.54  C222.77,252.76,223.52,253.21,224.5,253.02 M154.72,229.29c-1.69-0.97-2.61-2.18-3.31-3.28c0.98,0.48,2.08,0.86,3.17,1.22  c0.72,0.24,1.42,0.48,2.08,0.75C156.11,228.53,155.41,229.05,154.72,229.29 M160.34,229.74c-1.02-1.7-3.3-2.48-5.52-3.23  c-2.02-0.68-4.09-1.39-5.13-2.75c0.11-0.04,0.24-0.07,0.41-0.09c1.09-0.13,1.83-0.33,2.76-0.67c0.85-0.31,2.48-1.43,3.24-1.91  c0.76-0.48,2.48-1.05,3.08-0.51C162.91,223.81,162.27,228,160.34,229.74 M150.67,221.48c-0.92-0.29-1.11-1.42-1.23-2.53  c0.65,0.26,1.59,0.83,2.06,1.25c0.21,0.19,0.78,0.57,1.34,0.9C152.37,221.37,151.61,221.77,150.67,221.48 M134.83,236.48  c-0.26-0.85-0.54-1.69-0.84-2.53c-0.77-2.11-1.6-4.19-2.62-6.19c-1-2.01-2.1-3.96-3.33-5.84c-1.24-1.87-2.66-3.64-4.38-5.08  c1.18,1.9,2.35,3.72,3.48,5.59c-1.23-1.27-2.51-2.43-3.68-3.48c-2.56-2.3-4.76-4.28-4.22-5.65c0.07-0.17,0.42-0.52,1.3-0.72  c3.32-0.75,9.88,1.28,18.37,9.15c-0.31,0.36-0.62,0.73-0.93,1.13c-1-0.96-2.02-1.89-3.09-2.77c-1.73-1.41-3.6-2.68-5.62-3.63  c0.16,0.12,0.32,0.25,0.49,0.38c1.62,1.3,5.26,4.56,7.56,6.9c-0.19,0.26-0.37,0.53-0.55,0.8c-0.17-0.16-0.33-0.33-0.5-0.48  c-1.66-1.49-3.46-2.85-5.43-3.9c2.02,2.04,4.39,4.37,5.38,5.24c-0.17,0.28-0.34,0.58-0.5,0.87c-1.05-0.89-2.16-1.71-3.35-2.4  c0.88,1.29,2.23,2.74,2.87,3.38c-0.7,1.51-1.18,3.14-1.23,4.82l1.65-0.82C135.28,232.57,134.98,234.38,134.83,236.48 M145.21,255.28  c-4.32-3.18-6.61-8.64-7.37-12.96c-0.89,0.51-1.65,2.03-1.65,2.03c-0.76-5.47-0.22-12.01,1.43-15.06c0,0-1.65,0.51-2.16,0.76  c0.47-3.18,5.02-8.96,7.21-10.36h-2.41c1.08-1.65,4.83-3.94,6.86-4.7c-0.38-1.02-0.76-2.67-0.25-3.69c1.14,0.76,2.38,1.35,3.68,1.91  c1.66,0.71,8.33,1.97,8.67,6.36c-0.66-0.27-1.88-0.13-3.21,0.66c-0.32,0.19-0.66,0.42-1.05,0.67c-0.95,0.04-2.39-1.08-3.15-1.59  c-0.76-0.51-1.84-1.21-2.73-1.46c-0.89-0.25-2.1,1.21-2.35,1.84c0.15-0.1,1.15-0.62,1.79-0.81c0.03,0.89,0.2,2.44,1.2,3.16  c0.48,0.35,1.09,0.44,1.71,0.41c-1.41,0.32-2.52,0.04-2.95,0.64c-1.07,1.51,2.02,6.67,4.94,8.19c0.54,0.28,1.14,0.21,1.62,0.06  c0.04,1.23,0.57,2.72,1.99,4.49c0.1,0.15,0.23,0.29,0.37,0.44l-0.05-0.03C153.63,237.97,145.72,247.91,145.21,255.28 M152.81,279.48  c0.12-0.38,0.71-2.61,1.04-3.94c1.72-0.13,3.9-0.87,5.63-2.1c0.03,0.14,0.07,0.28,0.13,0.42c0.1,0.26,0.28,0.54,0.53,0.75  c-0.5,1.42-1.28,3.58-1.6,4.36c-0.44,1.07-2.77,1.57-3.76,1.72c-0.46-0.19-0.98-0.35-1.53-0.42c-0.17-0.02-0.34-0.03-0.51-0.04  C152.73,279.98,152.75,279.67,152.81,279.48 M146.02,283.5L146.02,283.5c-0.67,0.03-1.33,0.09-2,0.19c0.16-0.64,0.52-1.39,1-1.89  c0.3-0.32,0.66-0.55,1.05-0.66c0.37-0.12,0.82-0.09,1.26-0.04c0.01,0,0.01,0,0.02,0c-0.03,0.03-0.06,0.05-0.08,0.08  C146.65,281.81,146.22,282.64,146.02,283.5 M148.94,283.49c-0.06,0-0.12,0-0.18,0c-0.67,0.03-1.33,0.09-2,0.19  c0.16-0.64,0.52-1.39,1-1.89c0.3-0.32,0.66-0.55,1.05-0.66c0.37-0.12,0.82-0.09,1.26-0.04c0.06,0.01,0.12,0.03,0.18,0.04  c-0.2,0.2-0.4,0.43-0.59,0.72C149.26,282.43,149.05,283.01,148.94,283.49 M163.28,279.58c-0.18,0.59-0.14,1.04,0.12,1.39  c0.43,0.57,1.22,0.54,2.06,0.52c0.5-0.02,1.01-0.03,1.37,0.08c1,0.32,1.41,1.45,1.6,2.2c-1.45-0.43-3.45-0.32-5.26,0.25  c-1.89,0.6-3.82,0.93-6.93,0.14c-3.11-0.79-3.99-0.78-6.57-0.48c0.36-1.39,1.01-1.93,1.44-2.25c0.42-0.32,1.37-0.7,3.01-0.03  c1.64,0.67,2.71,1.57,4.24,0.23c-0.34,0.12-1.35,0.08-1.98-0.16c1.14-0.21,2.64-0.69,3.21-2.07c0.43-1.04,1.65-4.46,1.99-5.48  c0.3-0.03,1.08,0.08,1.93,0.45c0.7,0.3,0.93,0.57,0.95,0.57C164.34,275.65,163.45,279.05,163.28,279.58 M171.17,216.04  c5.91,2.86,8.14,5.62,8.01,9.72c-0.1,2.86-1.62,5.15-6.67,8.01s-7.82,6.39-7.62,8.29c4.45,1.78,8.93,8.9,9.82,13.85  c0.63-0.63,1.52-2.41,1.52-3.81c0.51,1.65,2.29,5.72-0.25,10.93c0.76-0.33,1.42-0.75,1.83-1.18c0.59,6.16-4.73,10.4-6.44,11.59  c-2.62,1.82-5.03,2.49-5.84,2.09c0.04-0.15,0.06-0.29,0.08-0.38c0.26-1.39-2.41-2.13-2.72-2.2c-1.57-0.41-2.12-0.03-2.3,0.39  c-0.04-0.15-0.08-0.32-0.09-0.51c-0.04-0.47-0.02-0.98,0.04-1.5l0.37-3.17c0.13-1.07,0.18-2.16,0.16-3.25  c-0.06-1.09-0.23-2.19-0.67-3.18c-0.09,1.08-0.41,2.4-0.69,3.43c-1.99-3.96-5.37-8.51-5.21-11.01c-0.76,0.76-1.78,3.18-1.91,4.96  c-4.83-11.34,3.63-19.59,6.46-21.54c0.46,0.29,0.99,0.57,1.56,0.85c-0.93,1.57-0.76,2.73-0.59,3.18c0.81-2.01,3.63-5.79,7.69-7.98  c4.06-2.19,6.71-3.53,8.03-5.85s0.61-5.62-2.06-7.62c-2.68-2.01-4.42-2.49-6.55-3.89c-2.19-1.44-2.38-2.47-2.31-3.01  c0.09-0.65,0.68-1.31,2.66-1.99c4.93-1.69,16.68-2.45,32.52,2.1c15.9,4.57,26.7,11.3,30.53,14.51c-5.09-3.32-14.83-8.72-28.93-12.79  c-21.45-6.2-32.86-3.04-32.6-0.95C169.07,214.9,170.05,215.5,171.17,216.04 M186.26,232.02c2.03,0.74,5.77,2.81,7.18,6.04  C191.43,237.1,188.1,234.77,186.26,232.02 M181.4,282.77c-0.94,0.05-2.21,0.13-2.99,0.36c0.21-1.45,1.41-3.01,2.68-3.01  c0.4,0,0.75,0.24,1.04,0.68C181.76,281.38,181.51,282.07,181.4,282.77 M184.59,282.81c-0.76,0.04-1.79,0.11-2.46,0.22  c0.19-1.42,1.08-2.9,2.16-2.9c0.4,0,0.75,0.24,1.04,0.68C184.96,281.4,184.7,282.1,184.59,282.81 M189.06,282.29v0.43  c-1.07,0-3.21,0.15-3.73,0.39c0.16-1.44,1.07-2.98,2.17-2.98C188.63,280.13,189.06,281.97,189.06,282.29 M205.25,282.66  c-0.75,0.07-1.66,0.21-2.26,0.35c0-0.53,0.14-1.38,0.5-1.94c0.36-0.56,0.88-0.94,1.43-0.94c0.4,0,0.75,0.24,1.04,0.68  C205.61,281.35,205.37,282,205.25,282.66 M205.96,283.05c0.18-1.43,1.07-2.92,2.16-2.92c0.4,0,0.75,0.24,1.04,0.68  c-0.35,0.55-0.59,1.21-0.71,1.89C207.7,282.76,206.66,282.9,205.96,283.05 M209.15,283.15c0.15-1.45,1.06-3.02,2.17-3.02  c1.13,0,1.61,1.84,1.57,2.46C211.75,282.61,209.76,282.9,209.15,283.15 M205.5,246.9c1.77,0.8,3.41,1.9,4.9,3.18  c1.47,1.29,2.85,2.73,3.92,4.35c0.06,0.09,0.12,0.18,0.17,0.27c-1.72-1.84-3.74-3.34-5.94-4.55c-1.32-0.71-2.71-1.3-4.19-1.7  c-0.52-0.14-1.06-0.25-1.6-0.34c-0.46-0.69-0.9-1.43-1.33-2.21C202.82,245.96,204.21,246.31,205.5,246.9 M199.18,244.92  c0.23,0.15,0.46,0.29,0.68,0.45c3.24,6.42,7.63,10.29,10.55,11.18c1.4,5.59,6.35,13.09,7.37,14.62c-0.09,2.07-0.28,6.55-0.19,7.69  c-0.95,2-2.57,3.43-2.57,4.48h-1.37v-1.05c0-0.44-0.33-1.8-1.18-2.5c0.49-0.86,3.09-5.54,2.52-7.73c-1.78-2.03-5.72-8.64-6.48-11.44  c-2.54-0.89-6.99-3.94-8.13-6.61c-0.25,1.4,0.89,4.7,1.4,5.21c-3.56-1.14-8.13-4.7-8.51-13.47c-2.12-1.53-4.13-2.99-6.13-3.87  C191.42,241.88,196.28,243.14,199.18,244.92 M186.13,228.54c6.85,1.54,11.53,5.97,12.77,9.43  C194.82,234.52,189.97,230.81,186.13,228.54 M185.97,225.11c7.39,1.42,15.63,5.67,19.48,12.57  C198.25,231.54,192.76,228.24,185.97,225.11 M185.88,221.58c11.92,1.85,24.69,9.73,28.41,16.29  C207.34,232.24,197.68,225.77,185.88,221.58 M184.71,218.09c12.02,1.46,31.35,8.06,42.13,20.37  C214.19,229.19,199.2,222.19,184.71,218.09 M185.63,214.61c23,2.66,44.18,15.01,52.24,24.02  C226.43,230.34,208.29,220.22,185.63,214.61"/>
  <polygon class="st4" points="207.82,310.36 214.61,310.36 217.07,311.28 217.07,303.23 214.61,304.16 207.82,304.16 207.82,297.42   208.75,294.9 200.7,294.91 201.67,297.42 201.62,304.16 194.83,304.16 192.37,303.23 192.37,311.28 194.83,310.36 201.62,310.36   201.62,325.84 200.7,328.36 208.75,328.36 207.82,325.98 "/>
  <path class="st2" d="M209.97,329.19l-10.47,0l1.29-3.5v-14.5h-5.8l-3.45,1.3l0-10.46l3.45,1.3h5.81l0.04-5.75l-1.36-3.5l10.47,0  l-1.29,3.5v5.75h5.8l3.45-1.3l0,10.46l-3.45-1.3h-5.8v14.63L209.97,329.19z M201.89,327.52l5.64,0l-0.54-1.39v-16.61h7.77l1.48,0.56  l0-5.64l-1.48,0.56h-7.77v-7.72l0.56-1.53l-5.63,0l0.59,1.53l-0.06,7.73h-7.77l-1.48-0.56l0,5.64l1.48-0.56h7.77v16.47  L201.89,327.52z"/>
  <g>
    <path class="st5" d="M325.92,249.19c-0.57,0.65-2.02,0.73-2.59,0.16c-1.38-5.1-5.02-11.82-15.71-11.82   c-10.28,0-20.65,7.29-20.65,23.89c0,17.25,10.77,25.67,21.22,25.67c10.2,0,14.66-6.8,16.92-12.07c0.73-0.73,2.02-0.41,2.43,0.32   c-0.57,5.43-2.75,10.77-3.89,12.31c-0.97,0.16-1.94,0.49-2.83,0.73c-1.78,0.57-7.37,1.94-12.63,1.94c-8.02,0-14.9-1.62-20.73-5.43   c-6.56-4.29-11.5-11.66-11.5-22.27c0-9.47,4.21-16.84,10.2-21.46c5.99-4.53,14.17-6.88,22.35-6.88c4.62,0,10.2,0.81,14.01,1.78   l2.27,0.49C324.95,238.42,325.11,243.2,325.92,249.19z"/>
    <path class="st5" d="M351.37,269.19c-2.11,0-2.02,0-2.75,2.19l-3.24,9.72c-1.62,4.78-0.57,4.94,2.43,5.42l2.35,0.41   c0.57,0.57,0.49,2.02-0.16,2.35c-2.59-0.16-5.67-0.16-8.99-0.24c-2.67,0-5.18,0.08-8.02,0.24c-0.57-0.41-0.65-1.62-0.08-2.35   l2.43-0.41c2.35-0.4,3.24-1.05,4.45-3.72c0.97-2.11,2.27-5.51,3.97-9.88l11.09-28.83c0.97-2.59,1.78-4.53,1.54-5.91   c2.83-0.57,5.51-3.89,5.67-3.89c0.65,0,1.05,0.24,1.38,0.65c1.3,3.64,2.35,7.45,3.64,11.09l11.66,33.93   c1.86,5.43,2.27,5.91,6.4,6.72l1.21,0.24c0.65,0.57,0.65,1.94,0.08,2.35c-3.32-0.16-6.32-0.24-10.53-0.24   c-3.48,0-7.05,0.16-9.88,0.24c-0.65-0.41-0.73-1.86-0.24-2.35l1.78-0.24c2.92-0.4,3.32-0.89,2.11-4.29l-3.81-11.01   c-0.73-2.19-1.05-2.19-3.32-2.19H351.37z M361.5,265.55c2.27,0,2.59-0.16,1.94-2.11l-3.4-9.72c-1.46-4.29-1.94-6.15-2.35-6.72   h-0.16c-0.32,0.57-1.13,2.92-2.51,6.72l-3.64,9.47c-0.81,2.35-0.65,2.35,1.3,2.35H361.5z"/>
    <path class="st5" d="M446.07,275.26c0,2.43,0,11.99,0.24,13.85c-0.65,0.89-2.11,1.21-3.08,1.13c-1.3-1.7-3.32-4.05-9.15-10.69   l-18.95-21.62c-5.18-5.99-7.85-8.99-9.23-10.2c-0.24,0-0.24,0.89-0.24,5.18v15.79c0,6.07,0.08,13.52,1.46,15.95   c0.73,1.21,2.11,1.78,4.13,2.02l1.78,0.24c0.73,0.57,0.65,2.11-0.16,2.35c-3-0.16-6.15-0.24-9.23-0.24c-3.4,0-5.59,0.08-8.42,0.24   c-0.65-0.41-0.81-1.78-0.16-2.35l1.78-0.41c1.54-0.32,3-0.57,3.56-1.86c1.05-2.51,1.05-9.56,1.05-15.95v-19.19   c0-6.32,0.08-7.61-2.67-9.96c-0.89-0.73-3.16-1.38-4.29-1.62l-1.21-0.24c-0.57-0.49-0.49-2.11,0.32-2.35   c3.08,0.32,7.53,0.24,9.56,0.24c1.7,0,3.64-0.08,5.59-0.24c1.38,3.48,10.2,13.69,13.04,16.76l8.1,8.75   c3.4,3.73,10.93,12.31,11.74,12.79c0.24-0.24,0.24-0.65,0.24-1.94v-15.79c0-6.07-0.08-13.52-1.54-15.95   c-0.73-1.21-2.02-1.78-4.05-2.02l-1.86-0.24c-0.73-0.57-0.65-2.11,0.16-2.35c3.16,0.16,6.15,0.24,9.31,0.24   c3.48,0,5.59-0.08,8.5-0.24c0.65,0.4,0.81,1.78,0.16,2.35l-1.86,0.4c-1.54,0.32-2.92,0.57-3.48,1.86   c-1.13,2.51-1.13,9.56-1.13,15.95V275.26z"/>
    <path class="st5" d="M479.27,277.37c0,8.58,0.73,8.83,4.54,9.31l1.78,0.24c0.57,0.57,0.49,2.02-0.16,2.35   c-3.56-0.16-7.21-0.24-10.77-0.24s-7.37,0.08-10.93,0.24c-0.65-0.32-0.73-1.78-0.16-2.35l1.78-0.24c3.81-0.49,4.53-0.73,4.53-9.31   v-30.12c0-8.58-0.73-8.83-4.53-9.31l-1.78-0.24c-0.57-0.57-0.49-2.03,0.16-2.35c3.56,0.16,7.21,0.24,10.93,0.24   c3.56,0,7.21-0.08,10.77-0.24c0.65,0.32,0.73,1.78,0.16,2.35l-1.78,0.24c-3.81,0.49-4.54,0.73-4.54,9.31V277.37z"/>
    <path class="st5" d="M497.51,286.92c-1.46-1.7-2.51-7.29-2.43-12.31c0.49-0.81,1.86-0.89,2.51-0.32   c1.46,4.13,5.83,12.79,13.77,12.79c6.15,0,9.64-3.73,9.64-8.67c0-4.62-2.19-8.34-8.26-11.74l-3.48-1.94   c-6.07-3.4-11.42-8.34-11.42-15.63c0-8.02,5.99-14.82,17.82-14.82c4.21,0,7.29,0.97,11.09,1.7c0.89,1.78,1.7,7.13,1.7,10.93   c-0.41,0.73-1.86,0.81-2.59,0.24c-1.21-4.21-4.05-9.64-10.93-9.64c-6.48,0-9.15,4.21-9.15,8.5c0,3.4,2.35,7.05,7.69,9.88l5.02,2.67   c5.26,2.75,11.09,7.77,11.09,15.95c0,9.23-7.04,15.79-18.79,15.79C503.34,290.33,499.13,287.9,497.51,286.92z"/>
    <path class="st5" d="M556.11,277.37c0,8.58,0.73,8.83,4.53,9.31l1.78,0.24c0.57,0.57,0.49,2.02-0.16,2.35   c-3.56-0.16-7.21-0.24-10.77-0.24c-3.56,0-7.37,0.08-10.93,0.24c-0.65-0.32-0.73-1.78-0.16-2.35l1.78-0.24   c3.81-0.49,4.54-0.73,4.54-9.31v-30.12c0-8.58-0.73-8.83-4.54-9.31l-1.78-0.24c-0.57-0.57-0.49-2.03,0.16-2.35   c3.56,0.16,7.21,0.24,10.93,0.24c3.56,0,7.21-0.08,10.77-0.24c0.65,0.32,0.73,1.78,0.16,2.35l-1.78,0.24   c-3.81,0.49-4.53,0.73-4.53,9.31V277.37z"/>
    <path class="st5" d="M580.08,247.24c0-8.58-0.73-8.75-4.53-9.39l-1.38-0.24c-0.57-0.57-0.49-1.94,0.16-2.27   c3.24,0.16,6.88,0.24,10.45,0.24c3.64,0,7.29-0.08,10.85-0.24c0.65,0.32,0.73,1.7,0.16,2.27l-1.78,0.24   c-3.81,0.49-4.54,0.81-4.54,9.39v18.54c0,11.18,3.4,20.57,14.66,20.57c10.61,0,14.98-8.02,14.98-20.33v-10.12   c0-6.07-0.08-13.6-1.54-15.95c-0.73-1.21-2.02-1.78-4.05-2.11l-1.62-0.24c-0.73-0.57-0.65-2.02,0.16-2.27   c2.75,0.16,5.83,0.24,8.99,0.24c3.4,0,5.59-0.08,8.58-0.24c0.65,0.4,0.81,1.7,0.16,2.27l-1.78,0.4c-1.54,0.32-3,0.65-3.56,1.94   c-1.13,2.43-1.13,9.56-1.13,15.95v9.64c0,7.37-1.13,14.17-5.34,18.71c-4.21,4.53-10.28,6.07-15.87,6.07   c-7.61,0-12.96-1.62-16.68-5.18c-3.64-3.48-5.34-9.15-5.34-17.33V247.24z"/>
    <path class="st5" d="M641.78,286.92c-1.46-1.7-2.51-7.29-2.43-12.31c0.49-0.81,1.86-0.89,2.51-0.32   c1.46,4.13,5.83,12.79,13.77,12.79c6.15,0,9.64-3.73,9.64-8.67c0-4.62-2.19-8.34-8.26-11.74l-3.48-1.94   c-6.07-3.4-11.42-8.34-11.42-15.63c0-8.02,5.99-14.82,17.82-14.82c4.21,0,7.29,0.97,11.09,1.7c0.89,1.78,1.7,7.13,1.7,10.93   c-0.41,0.73-1.86,0.81-2.59,0.24c-1.21-4.21-4.05-9.64-10.93-9.64c-6.48,0-9.15,4.21-9.15,8.5c0,3.4,2.35,7.05,7.69,9.88l5.02,2.67   c5.26,2.75,11.09,7.77,11.09,15.95c0,9.23-7.04,15.79-18.79,15.79C647.61,290.33,643.4,287.9,641.78,286.92z"/>
  </g>
  <g>
    <g>
      <path class="st6" d="M360.48,323.73c0-2.39-0.08-6.82-0.73-7.98c-0.27-0.46-0.96-0.73-1.93-0.81l-0.96-0.08    c-0.23-0.27-0.15-0.77,0.08-0.92c1.46,0.08,2.89,0.12,4.39,0.12c1.62,0,2.66-0.04,4.05-0.12c0.31,0.19,0.27,0.69,0.08,0.92    l-0.92,0.08c-0.96,0.08-1.69,0.42-1.93,0.92c-0.54,1.27-0.54,5.7-0.54,7.86v4.35c0,3.35-0.54,6.9-2.7,9.21    c-1.66,1.81-4.51,2.81-7.36,2.81c-2.66,0-5.32-0.5-7.21-2.12c-2.04-1.7-3-4.51-3-9.09v-9.09c0-4.01-0.08-4.66-2.31-4.85    l-0.96-0.08c-0.23-0.15-0.15-0.81,0.08-0.92c1.93,0.08,3.24,0.12,4.78,0.12c1.58,0,2.85-0.04,4.74-0.12    c0.23,0.12,0.31,0.77,0.08,0.92l-0.92,0.08c-2.23,0.19-2.31,0.85-2.31,4.85v8.32c0,6.2,1.93,10.29,7.82,10.29    c5.59,0,7.71-4.39,7.71-10.25V323.73z"/>
      <path class="st6" d="M397.7,332.93c0,1.16,0,5.74,0.12,6.74c-0.08,0.23-0.31,0.42-0.73,0.42c-0.46-0.65-1.58-2-4.93-5.82    l-8.94-10.17c-1.04-1.19-3.66-4.35-4.47-5.2h-0.08c-0.15,0.46-0.19,1.35-0.19,2.5v8.4c0,1.81,0.04,6.82,0.69,7.98    c0.23,0.42,1,0.66,1.96,0.73l1.19,0.12c0.23,0.31,0.19,0.77-0.08,0.96c-1.73-0.08-3.08-0.12-4.51-0.12    c-1.62,0-2.66,0.04-4.01,0.12c-0.27-0.19-0.31-0.73-0.08-0.96l1.04-0.12c0.89-0.12,1.5-0.35,1.69-0.77    c0.54-1.39,0.5-6.09,0.5-7.94v-11.13c0-1.08-0.04-1.89-0.85-2.77c-0.54-0.54-1.46-0.81-2.39-0.92L373,314.9    c-0.23-0.23-0.23-0.81,0.08-0.96c1.62,0.12,3.66,0.12,4.35,0.12c0.62,0,1.27-0.04,1.77-0.12c0.77,1.96,5.32,7.05,6.59,8.48    l3.74,4.2c2.66,2.97,4.55,5.12,6.36,6.97h0.08c0.15-0.19,0.15-0.81,0.15-1.62v-8.25c0-1.81-0.04-6.82-0.77-7.98    c-0.23-0.35-0.85-0.58-2.39-0.77l-0.65-0.08c-0.27-0.23-0.23-0.85,0.08-0.96c1.77,0.08,3.08,0.12,4.55,0.12    c1.66,0,2.66-0.04,3.97-0.12c0.31,0.19,0.31,0.73,0.08,0.96l-0.54,0.08c-1.23,0.19-2,0.5-2.16,0.81    c-0.65,1.39-0.58,6.17-0.58,7.94V332.93z"/>
    </g>
    <g>
      <path class="st6" d="M412.51,319.91c0-4.08-0.08-4.74-2.35-4.93l-0.96-0.08c-0.23-0.15-0.15-0.85,0.08-0.96    c1.93,0.08,3.24,0.12,4.85,0.12c1.54,0,2.85-0.04,4.78-0.12c0.23,0.12,0.31,0.81,0.08,0.96l-0.96,0.08    c-2.27,0.19-2.35,0.85-2.35,4.93v13.72c0,4.08,0.08,4.62,2.35,4.89l0.96,0.12c0.23,0.15,0.15,0.85-0.08,0.96    c-1.93-0.08-3.24-0.12-4.78-0.12c-1.62,0-2.93,0.04-4.85,0.12c-0.23-0.12-0.31-0.73-0.08-0.96l0.96-0.12    c2.27-0.27,2.35-0.81,2.35-4.89V319.91z"/>
      <path class="st6" d="M430.39,318.14c-0.89-2.16-1.46-2.97-3.12-3.16l-0.69-0.08c-0.27-0.23-0.23-0.77,0.08-0.96    c1.12,0.08,2.35,0.12,4.01,0.12c1.7,0,3.04-0.04,4.66-0.12c0.27,0.15,0.35,0.73,0.08,0.96l-0.58,0.08    c-1.46,0.19-1.77,0.42-1.81,0.73c0.08,0.39,0.73,2.47,1.93,5.39c1.77,4.47,3.54,8.9,5.47,13.29c1.19-2.54,2.81-6.51,3.7-8.55    c1.12-2.62,2.93-6.97,3.58-8.63c0.31-0.81,0.35-1.23,0.35-1.5c0-0.27-0.39-0.58-1.73-0.73l-0.69-0.08    c-0.27-0.23-0.19-0.81,0.08-0.96c1.08,0.08,2.54,0.12,4.01,0.12c1.27,0,2.47-0.04,3.74-0.12c0.27,0.15,0.27,0.77,0.08,0.96    l-1.16,0.08c-0.92,0.08-1.5,0.54-2,1.35c-1.08,1.81-2.58,4.93-4.31,8.86l-2.08,4.74c-1.54,3.54-3.35,8.01-4.01,10.06    c-0.12,0.08-0.27,0.12-0.42,0.12c-0.19,0-0.39-0.04-0.58-0.12c-0.42-1.62-1.12-3.51-1.77-5.12L430.39,318.14z"/>
    </g>
    <g>
      <path class="st6" d="M463.79,319.83c0-4.01-0.08-4.58-2.35-4.85l-0.62-0.08c-0.23-0.15-0.15-0.85,0.08-0.96    c1.66,0.08,2.97,0.12,4.55,0.12h7.24c2.47,0,4.74,0,5.2-0.12c0.23,0.65,0.46,3.43,0.62,5.12c-0.15,0.23-0.77,0.31-0.96,0.08    c-0.58-1.81-0.92-3.16-2.93-3.66c-0.81-0.19-2.04-0.23-3.74-0.23h-2.77c-1.16,0-1.16,0.08-1.16,1.54v7.71    c0,1.08,0.12,1.08,1.27,1.08h2.23c1.62,0,2.81-0.08,3.27-0.23c0.46-0.15,0.73-0.39,0.92-1.35l0.31-1.58    c0.19-0.23,0.85-0.23,1,0.04c0,0.92-0.15,2.43-0.15,3.89c0,1.39,0.15,2.85,0.15,3.7c-0.15,0.27-0.81,0.27-1,0.04l-0.35-1.5    c-0.15-0.69-0.42-1.27-1.19-1.46c-0.54-0.15-1.46-0.19-2.97-0.19h-2.23c-1.16,0-1.27,0.04-1.27,1.04v5.43    c0,2.04,0.12,3.35,0.73,4.01c0.46,0.46,1.27,0.89,4.66,0.89c2.97,0,4.08-0.15,4.93-0.58c0.69-0.38,1.73-1.73,2.74-3.74    c0.27-0.19,0.81-0.08,0.96,0.27c-0.27,1.35-1.23,4.32-1.73,5.36c-3.47-0.08-6.9-0.12-10.33-0.12h-3.47    c-1.66,0-2.97,0.04-5.24,0.12c-0.23-0.12-0.31-0.73-0.08-0.96l1.27-0.12c2.2-0.19,2.39-0.77,2.39-4.82V319.83z"/>
      <path class="st6" d="M491.34,319.87c0-3.66-0.12-4.31-1.7-4.51l-1.23-0.15c-0.27-0.19-0.27-0.81,0.04-0.96    c2.16-0.19,4.82-0.31,8.59-0.31c2.39,0,4.66,0.19,6.43,1.16c1.85,0.96,3.2,2.7,3.2,5.39c0,3.66-2.89,5.66-4.82,6.43    c-0.19,0.23,0,0.62,0.19,0.92c3.08,4.97,5.12,8.05,7.74,10.25c0.66,0.58,1.62,1,2.66,1.08c0.19,0.08,0.23,0.39,0.04,0.54    c-0.35,0.12-0.96,0.19-1.7,0.19c-3.28,0-5.24-0.96-7.98-4.85c-1-1.43-2.58-4.08-3.78-5.82c-0.58-0.85-1.19-1.23-2.74-1.23    c-1.73,0-1.81,0.04-1.81,0.85v4.85c0,4.05,0.08,4.51,2.31,4.82l0.81,0.12c0.23,0.19,0.15,0.85-0.08,0.96    c-1.73-0.08-3.04-0.12-4.58-0.12c-1.62,0-3,0.04-4.82,0.12c-0.23-0.12-0.31-0.69-0.08-0.96l0.96-0.12    c2.23-0.27,2.31-0.77,2.31-4.82V319.87z M494.5,325.38c0,0.69,0,1.12,0.12,1.27c0.12,0.12,0.69,0.19,2.66,0.19    c1.39,0,2.85-0.15,3.97-1c1.04-0.81,1.93-2.16,1.93-4.78c0-3.04-1.89-5.93-6.16-5.93c-2.39,0-2.5,0.15-2.5,1.23V325.38z"/>
    </g>
    <g>
      <path class="st6" d="M523.52,340.1c-3.24,0-5.28-1-6.01-1.43c-0.46-0.85-0.96-3.58-1.04-5.39c0.19-0.27,0.77-0.35,0.92-0.12    c0.58,1.96,2.16,5.74,6.63,5.74c3.24,0,4.82-2.12,4.82-4.43c0-1.7-0.35-3.58-3.16-5.39l-3.66-2.39c-1.93-1.27-4.16-3.47-4.16-6.63    c0-3.66,2.85-6.63,7.86-6.63c1.19,0,2.58,0.23,3.58,0.5c0.5,0.15,1.04,0.23,1.35,0.23c0.35,0.92,0.69,3.08,0.69,4.7    c-0.15,0.23-0.77,0.35-0.96,0.12c-0.5-1.85-1.54-4.35-5.24-4.35c-3.78,0-4.58,2.5-4.58,4.28c0,2.23,1.85,3.85,3.27,4.74l3.08,1.93    c2.43,1.5,4.82,3.74,4.82,7.4C531.73,337.21,528.53,340.1,523.52,340.1z"/>
      <path class="st6" d="M543.09,319.91c0-4.08-0.08-4.74-2.35-4.93l-0.96-0.08c-0.23-0.15-0.15-0.85,0.08-0.96    c1.93,0.08,3.24,0.12,4.85,0.12c1.54,0,2.85-0.04,4.78-0.12c0.23,0.12,0.31,0.81,0.08,0.96l-0.96,0.08    c-2.27,0.19-2.35,0.85-2.35,4.93v13.72c0,4.08,0.08,4.62,2.35,4.89l0.96,0.12c0.23,0.15,0.15,0.85-0.08,0.96    c-1.93-0.08-3.24-0.12-4.78-0.12c-1.62,0-2.93,0.04-4.85,0.12c-0.23-0.12-0.31-0.73-0.08-0.96l0.96-0.12    c2.27-0.27,2.35-0.81,2.35-4.89V319.91z"/>
    </g>
    <g>
      <path class="st6" d="M570.59,333.7c0,4.05,0.08,4.62,2.31,4.82l1.23,0.12c0.23,0.15,0.15,0.85-0.08,0.96    c-2.2-0.08-3.51-0.12-5.05-0.12s-2.89,0.04-5.36,0.12c-0.23-0.12-0.31-0.77,0-0.96l1.39-0.12c2.2-0.19,2.39-0.77,2.39-4.82v-17.22    c0-1.19,0-1.23-1.16-1.23h-2.12c-1.66,0-3.78,0.08-4.74,0.96c-0.92,0.85-1.31,1.7-1.73,2.66c-0.31,0.23-0.85,0.04-1-0.27    c0.62-1.73,1.19-4.2,1.46-5.74c0.12-0.08,0.62-0.12,0.73,0c0.23,1.23,1.5,1.19,3.28,1.19h15.6c2.08,0,2.43-0.08,3-1.08    c0.19-0.08,0.62-0.04,0.69,0.12c-0.42,1.58-0.69,4.7-0.58,5.86c-0.15,0.31-0.81,0.31-1,0.08c-0.12-0.96-0.39-2.39-0.96-2.81    c-0.89-0.65-2.35-0.96-4.47-0.96h-2.74c-1.16,0-1.12,0.04-1.12,1.31V333.7z"/>
      <path class="st6" d="M601.34,333.63c0,4.12,0.23,4.74,2.31,4.89l1.46,0.12c0.23,0.23,0.15,0.85-0.08,0.96    c-2.39-0.08-3.7-0.12-5.24-0.12c-1.62,0-3,0.04-5.05,0.12c-0.23-0.12-0.31-0.73-0.08-0.96l1.19-0.12    c2.23-0.23,2.31-0.77,2.31-4.89v-1.96c0-2.12-0.12-2.62-1.23-4.78l-4.55-8.86c-1.31-2.54-1.89-2.74-3.04-2.93l-1.08-0.19    c-0.23-0.27-0.19-0.81,0.08-0.96c1.23,0.08,2.62,0.12,4.47,0.12c1.77,0,3.16-0.04,4.12-0.12c0.35,0.12,0.35,0.73,0.12,0.96    l-0.5,0.08c-1.35,0.19-1.62,0.38-1.62,0.69c0,0.38,1,2.58,1.19,2.97c1.43,2.85,2.85,5.89,4.35,8.55c1.19-2.04,2.47-4.28,3.62-6.51    c1.08-2,2.5-4.62,2.5-5.09c0-0.23-0.69-0.5-1.62-0.62l-0.69-0.08c-0.27-0.27-0.23-0.81,0.08-0.96c1.39,0.08,2.5,0.12,3.7,0.12    s2.27-0.04,3.58-0.12c0.31,0.19,0.35,0.73,0.08,0.96l-1.08,0.19c-2,0.35-3.16,2.77-5.09,6.09l-2.43,4.2    c-1.7,2.93-1.81,3.28-1.81,6.24V333.63z"/>
    </g>
  </g>
</svg>